<?xml version="1.0" standalone="no"?>
<!DOCTYPE svg PUBLIC "-//W3C//DTD SVG 20010904//EN"
 "http://www.w3.org/TR/2001/REC-SVG-20010904/DTD/svg10.dtd">
<svg version="1.0" xmlns="http://www.w3.org/2000/svg"
 width="256.000000pt" height="256.000000pt" viewBox="0 0 256.000000 256.000000"
 preserveAspectRatio="xMidYMid meet">

<g transform="translate(0.000000,256.000000) scale(0.100000,-0.100000)"
fill="#000000" stroke="none">
<path d="M695 2546 c-61 -27 -120 -114 -150 -221 -21 -79 -30 -272 -17 -359
l11 -68 -49 -48 c-178 -174 -230 -445 -124 -649 l35 -65 -21 -47 c-34 -81 -50
-169 -50 -284 0 -128 18 -216 60 -293 l29 -53 -18 -42 c-43 -99 -64 -288 -45
-386 l6 -31 78 0 78 0 -14 47 c-28 91 -9 233 46 351 16 35 30 72 30 82 0 10
-16 37 -35 60 -51 61 -70 133 -70 265 0 125 17 195 65 266 37 55 38 81 1 128
-97 123 -110 278 -36 428 69 141 183 213 336 213 79 0 80 0 97 32 43 79 97
133 176 173 74 38 84 40 165 40 73 0 95 -4 145 -28 83 -38 140 -88 179 -155
l33 -57 95 -5 c108 -7 164 -27 229 -86 166 -150 191 -387 59 -555 -37 -47 -36
-73 1 -128 48 -71 65 -141 65 -266 0 -132 -19 -204 -70 -265 -19 -23 -35 -49
-35 -58 0 -9 16 -54 36 -99 48 -113 65 -239 43 -324 l-16 -59 77 0 78 0 6 31
c20 99 -7 318 -49 398 -13 27 -12 32 15 83 42 77 60 165 60 294 0 115 -21 229
-55 294 -16 31 -16 34 18 103 61 125 72 236 37 371 -27 105 -73 187 -147 263
l-62 63 10 57 c7 34 9 110 6 183 -8 178 -41 285 -111 358 -82 87 -170 83 -254
-13 -48 -55 -78 -127 -100 -243 -10 -48 -21 -81 -27 -78 -215 98 -315 98 -530
0 -6 -3 -17 30 -27 78 -22 116 -52 188 -99 242 -66 74 -124 93 -194 62z m108
-196 c34 -69 57 -174 57 -266 0 -90 -9 -99 -111 -107 l-77 -7 -6 73 c-14 155
42 374 93 365 9 -2 28 -28 44 -58z m1035 28 c41 -67 68 -229 56 -342 l-7 -66
-76 6 c-107 9 -115 19 -108 144 8 136 61 290 101 290 8 0 23 -15 34 -32z"/>
<path d="M1203 1480 c-76 -11 -176 -62 -226 -114 -64 -65 -87 -120 -87 -206 0
-119 58 -202 180 -259 52 -24 64 -26 210 -26 147 0 158 1 211 26 123 58 179
139 179 259 0 84 -27 147 -90 210 -86 86 -238 131 -377 110z m214 -120 c68
-30 138 -102 153 -157 23 -79 -19 -161 -104 -206 -34 -18 -62 -22 -163 -25
-178 -6 -261 28 -304 123 -23 50 -23 80 0 130 33 73 109 132 198 155 57 14
166 4 220 -20z"/>
<path d="M1196 1242 c-14 -13 -4 -45 20 -67 21 -19 25 -30 19 -53 -7 -36 12
-55 52 -50 25 3 28 8 31 42 2 24 13 52 28 69 27 33 29 40 12 55 -14 10 -152
14 -162 4z"/>
<path d="M724 1436 c-28 -28 -34 -42 -34 -75 0 -55 34 -91 85 -91 47 0 71 14
90 50 24 46 19 87 -14 121 -41 41 -83 39 -127 -5z"/>
<path d="M1709 1441 c-33 -34 -38 -75 -14 -121 19 -36 43 -50 90 -50 51 0 85
36 85 91 0 33 -6 47 -34 75 -44 44 -86 46 -127 5z"/>
</g>
</svg>
